<svg xmlns="http://www.w3.org/2000/svg" xmlns:xlink="http://www.w3.org/1999/xlink" width="500" zoomAndPan="magnify" viewBox="0 0 375 374.999991" height="500" preserveAspectRatio="xMidYMid meet" version="1.0"><defs><g/><clipPath id="0a93645b57"><path d="M 74.101562 62.367188 L 300.601562 62.367188 L 300.601562 312.867188 L 74.101562 312.867188 Z M 74.101562 62.367188 " clip-rule="nonzero"/></clipPath></defs><g clip-path="url(#0a93645b57)"><path fill="#ffffff" d="M 136.683594 108.207031 C 137.691406 105.132812 141.011719 103.457031 144.085938 104.464844 C 147.160156 105.484375 148.839844 108.792969 147.828125 111.867188 C 145.316406 119.460938 140.4375 125.996094 134.066406 130.59375 C 127.859375 135.085938 120.246094 137.726562 112.042969 137.726562 C 101.636719 137.726562 92.21875 133.515625 85.386719 126.6875 C 78.570312 119.871094 74.347656 110.449219 74.347656 100.042969 C 74.347656 89.636719 78.570312 80.214844 85.386719 73.398438 C 92.207031 66.582031 101.636719 62.355469 112.042969 62.355469 C 118.507812 62.355469 124.632812 64.011719 130.007812 66.933594 C 133.539062 68.84375 136.71875 71.308594 139.453125 74.207031 L 146.363281 67.953125 C 148.753906 65.792969 152.453125 65.972656 154.609375 68.363281 C 156.769531 70.757812 156.59375 74.453125 154.199219 76.613281 L 142.890625 86.84375 C 142.75 86.984375 142.609375 87.113281 142.457031 87.242188 L 114.660156 112.359375 C 114.296875 112.75 113.863281 113.078125 113.382812 113.359375 C 110.589844 114.976562 107.011719 114.027344 105.390625 111.222656 L 95.03125 93.34375 C 93.414062 90.550781 94.363281 86.972656 97.167969 85.351562 C 99.960938 83.734375 103.539062 84.683594 105.15625 87.476562 L 111.890625 99.113281 L 130.78125 82.03125 C 128.929688 80.097656 126.78125 78.464844 124.410156 77.175781 C 120.761719 75.191406 116.550781 74.066406 112.042969 74.066406 C 104.875 74.066406 98.386719 76.976562 93.683594 81.667969 C 88.992188 86.363281 86.082031 92.851562 86.082031 100.019531 C 86.082031 107.1875 88.992188 113.675781 93.683594 118.378906 C 98.375 123.074219 104.875 125.984375 112.042969 125.984375 C 117.734375 125.984375 122.992188 124.175781 127.238281 121.101562 C 131.601562 117.945312 134.957031 113.441406 136.695312 108.183594 Z M 164.6875 280.828125 C 161.449219 280.828125 158.820312 278.199219 158.820312 274.960938 C 158.820312 271.722656 161.449219 269.09375 164.6875 269.09375 L 294.8125 269.09375 C 298.050781 269.09375 300.679688 271.722656 300.679688 274.960938 C 300.679688 278.199219 298.050781 280.828125 294.8125 280.828125 Z M 94.996094 268.273438 C 93.378906 265.480469 94.328125 261.890625 97.132812 260.285156 C 99.925781 258.664062 103.503906 259.617188 105.121094 262.40625 L 111.855469 274.046875 L 130.746094 256.964844 C 128.894531 255.039062 126.746094 253.398438 124.375 252.105469 C 120.726562 250.125 116.515625 248.996094 112.007812 248.996094 C 104.839844 248.996094 98.351562 251.90625 93.648438 256.601562 C 88.957031 261.292969 86.046875 267.792969 86.046875 274.960938 C 86.046875 282.128906 88.957031 288.617188 93.648438 293.3125 C 98.339844 298.003906 104.839844 300.914062 112.007812 300.914062 C 117.699219 300.914062 122.957031 299.105469 127.203125 296.019531 C 131.566406 292.867188 134.921875 288.359375 136.660156 283.117188 C 137.667969 280.042969 140.988281 278.363281 144.0625 279.371094 C 147.136719 280.382812 148.8125 283.703125 147.804688 286.777344 C 145.292969 294.367188 140.414062 300.902344 134.042969 305.5 C 127.835938 309.984375 120.222656 312.632812 112.019531 312.632812 C 101.613281 312.632812 92.195312 308.410156 85.363281 301.59375 C 78.546875 294.777344 74.324219 285.355469 74.324219 274.949219 C 74.324219 264.542969 78.546875 255.121094 85.363281 248.304688 C 92.183594 241.488281 101.613281 237.265625 112.019531 237.265625 C 118.484375 237.265625 124.609375 238.917969 129.984375 241.839844 C 133.515625 243.753906 136.695312 246.21875 139.441406 249.113281 L 146.351562 242.875 C 148.742188 240.714844 152.441406 240.890625 154.597656 243.285156 C 156.757812 245.675781 156.582031 249.371094 154.1875 251.53125 L 142.878906 261.761719 C 142.738281 261.902344 142.597656 262.03125 142.445312 262.148438 L 114.648438 287.28125 C 114.285156 287.667969 113.851562 287.996094 113.371094 288.277344 C 110.578125 289.898438 107 288.945312 105.378906 286.15625 L 95.019531 268.273438 Z M 164.6875 193.375 C 161.449219 193.375 158.820312 190.746094 158.820312 187.507812 C 158.820312 184.269531 161.449219 181.640625 164.6875 181.640625 L 294.8125 181.640625 C 298.050781 181.640625 300.679688 184.269531 300.679688 187.507812 C 300.679688 190.746094 298.050781 193.375 294.8125 193.375 Z M 94.996094 180.820312 C 93.378906 178.027344 94.328125 174.449219 97.132812 172.832031 C 99.925781 171.210938 103.503906 172.160156 105.121094 174.953125 L 111.855469 186.59375 L 130.746094 169.511719 C 128.894531 167.585938 126.746094 165.941406 124.375 164.652344 C 120.726562 162.671875 116.515625 161.542969 112.007812 161.542969 C 104.839844 161.542969 98.351562 164.453125 93.648438 169.144531 C 88.957031 173.839844 86.046875 180.328125 86.046875 187.496094 C 86.046875 194.664062 88.957031 201.152344 93.648438 205.84375 C 98.339844 210.539062 104.839844 213.449219 112.007812 213.449219 C 117.699219 213.449219 122.957031 211.640625 127.203125 208.554688 C 131.566406 205.398438 134.921875 200.894531 136.660156 195.648438 C 137.667969 192.574219 140.988281 190.898438 144.0625 191.90625 C 147.136719 192.917969 148.8125 196.238281 147.804688 199.308594 C 145.292969 206.902344 140.414062 213.4375 134.042969 218.035156 C 127.835938 222.527344 120.222656 225.167969 112.019531 225.167969 C 101.613281 225.167969 92.195312 220.957031 85.363281 214.128906 C 78.546875 207.3125 74.324219 197.890625 74.324219 187.484375 C 74.324219 177.078125 78.546875 167.65625 85.363281 160.839844 C 92.183594 154.023438 101.613281 149.800781 112.019531 149.800781 C 118.484375 149.800781 124.609375 151.453125 129.984375 154.375 C 133.515625 156.289062 136.695312 158.75 139.441406 161.648438 L 146.351562 155.40625 C 148.742188 153.25 152.441406 153.425781 154.597656 155.816406 C 156.757812 158.210938 156.582031 161.90625 154.1875 164.066406 L 142.878906 174.296875 C 142.738281 174.4375 142.597656 174.566406 142.445312 174.683594 L 114.648438 199.816406 C 114.285156 200.203125 113.851562 200.53125 113.371094 200.8125 C 110.578125 202.429688 107 201.480469 105.378906 198.6875 L 95.019531 180.808594 Z M 164.6875 105.921875 C 161.449219 105.921875 158.820312 103.292969 158.820312 100.054688 C 158.820312 96.816406 161.449219 94.1875 164.6875 94.1875 L 294.8125 94.1875 C 298.050781 94.1875 300.679688 96.816406 300.679688 100.054688 C 300.679688 103.292969 298.050781 105.921875 294.8125 105.921875 Z M 164.6875 105.921875 " fill-opacity="1" fill-rule="nonzero"/></g><g fill="#ffffff" fill-opacity="1"><g transform="translate(185.378899, 188.337746)"><g><path d="M 2.09375 0.15625 C 1.632812 0.15625 1.289062 0.0195312 1.0625 -0.25 C 0.832031 -0.519531 0.71875 -0.847656 0.71875 -1.234375 C 0.71875 -1.628906 0.835938 -1.957031 1.078125 -2.21875 C 1.316406 -2.488281 1.65625 -2.625 2.09375 -2.625 C 2.53125 -2.625 2.875 -2.507812 3.125 -2.28125 C 3.382812 -2.0625 3.515625 -1.726562 3.515625 -1.28125 C 3.515625 -0.832031 3.394531 -0.476562 3.15625 -0.21875 C 2.914062 0.03125 2.5625 0.15625 2.09375 0.15625 Z M 2.09375 0.15625 "/></g></g></g></svg>